<?xml version="1.0" encoding="UTF-8"?>
<!DOCTYPE svg PUBLIC "-//W3C//DTD SVG 1.1//EN" "http://www.w3.org/Graphics/SVG/1.1/DTD/svg11.dtd">
<svg version="1.1" xmlns="http://www.w3.org/2000/svg" xmlns:xlink="http://www.w3.org/1999/xlink" x="0" y="0" width="740.91" height="271.718" viewBox="0, 0, 740.91, 271.718">
  <g id="Calque_1">
    <g>
      <path d="M57.099,29 L61.19,29.285 L66.138,29.666 L69.373,31.188 C69.373,31.188 71.181,32.521 71.181,32.616 C71.181,32.711 72.989,34.328 72.989,34.328 C72.989,34.328 73.845,36.231 73.845,36.231 C73.845,36.231 73.94,37.754 73.94,37.754 L75.417,38.215 L243.705,37.662 L243.705,233.265 L74.195,234.25 L72.197,237.675 L69.438,239.673 L66.774,241.195 C66.774,241.195 63.063,242.623 62.968,242.623 C62.873,242.623 59.638,242.718 59.638,242.718 C59.638,242.718 56.308,241.386 56.308,241.386 L52.977,239.768 L50.028,236.153 C50.028,236.153 46.793,231.966 46.793,231.966 C46.793,231.966 43.653,225.306 43.653,225.306 L40.513,218.455 L37.658,210.938 L35.185,203.041 L32.425,190.101 L31.188,179.92 L29,154.991 L29,127.112 L29.285,94.001 L30.648,79.048 L32.36,70.96 C32.36,70.96 34.073,63.539 34.073,63.444 C34.073,63.349 36.927,53.834 36.927,53.834 L42.065,43.653 L50.248,34.328 L53.674,30.808 L57.099,29 z" fill="#2C3E50"/>
      <path d="M75.496,38.715 L687.975,36.685 L694.779,40.266 L704.207,51.494 L710.713,63.102 L711.656,78.04 L712.127,109.059 C712.127,109.059 712.41,142.265 712.41,142.361 C712.41,142.456 711.844,175.092 711.844,175.092 L707.507,202.019 L700.624,220.858 L686.764,230.183 L675.262,231.039 L658.573,231.324 L74.286,234.75 L72.306,238.175 L69.571,240.173 L66.931,241.695 C66.931,241.695 63.254,243.123 63.16,243.123 C63.066,243.123 59.86,243.218 59.86,243.218 C59.86,243.218 56.56,241.886 56.56,241.886 L53.26,240.268 L50.337,236.653 C50.337,236.653 47.131,232.466 47.131,232.466 C47.131,232.466 44.02,225.806 44.02,225.806 L40.909,218.955 L38.08,211.438 L35.629,203.541 L32.894,190.601 L31.669,180.42 L29.5,155.491 L29.5,127.613 L29.783,94.501 L31.133,79.548 L32.83,71.46 C32.83,71.46 34.527,64.039 34.527,63.944 C34.527,63.849 37.356,54.334 37.356,54.334 L42.447,44.153 L50.556,34.828 L53.95,31.308 L57.344,29.5 L61.398,29.785 L66.301,30.166 L69.507,31.688 C69.507,31.688 71.298,33.021 71.298,33.116 C71.298,33.211 73.09,34.828 73.09,34.828 C73.09,34.828 73.938,36.731 73.938,36.731 C73.938,36.731 74.033,38.254 74.033,38.254 L75.496,38.715" fill-opacity="0" stroke="#2C3E50" stroke-width="15"/>
      <path d="M687.251,37.313 L694.117,40.894 L703.632,52.121 L710.197,63.73 L711.149,78.668 L711.625,109.686 C711.625,109.686 711.91,142.893 711.91,142.988 C711.91,143.083 711.339,175.719 711.339,175.719 L706.962,202.646 L700.016,221.486 L686.03,230.81 L674.422,231.666 L657.58,231.952 L236.872,234.396 L236.872,38.792 L687.251,37.313 z" fill="#C0392B"/>
      <path d="M232.062,38.184 L687.751,36.688 L694.617,40.269 L704.132,51.497 L710.697,63.105 L711.649,78.043 L712.125,109.061 C712.125,109.061 712.41,142.268 712.41,142.363 C712.41,142.458 711.839,175.094 711.839,175.094 L707.462,202.021 L700.516,220.861 L686.53,230.185 L674.922,231.042 L658.08,231.327 L235.834,233.78" fill-opacity="0" stroke="#2C3E50" stroke-width="15"/>
      <text transform="matrix(1, 0, 0, 1, 370.455, 135.859)">
        <tspan x="-286.632" y="45.333" font-family="Boogaloo-Regular" font-size="144" fill="#ECF0F1">BUCKSHOT</tspan>
      </text>
    </g>
  </g>
</svg>
